<?xml version="1.0" encoding="utf-8"?>
<!-- Generator: Adobe Illustrator 15.0.2, SVG Export Plug-In . SVG Version: 6.00 Build 0)  -->
<!DOCTYPE svg PUBLIC "-//W3C//DTD SVG 1.1//EN" "http://www.w3.org/Graphics/SVG/1.1/DTD/svg11.dtd">
<svg version="1.1" id="Layer_1" xmlns="http://www.w3.org/2000/svg" xmlns:xlink="http://www.w3.org/1999/xlink" x="0px" y="0px"
	 width="120px" height="120px" viewBox="0 0 120 120" enable-background="new 0 0 120 120" xml:space="preserve">
<g>
	<path fill="#fcb95b" d="M120,108c0,6.6-5.4,12-12,12H12c-6.6,0-12-5.4-12-12V12C0,5.4,5.4,0,12,0h96c6.6,0,12,5.4,12,12V108z"/>
</g>
<polygon fill="#FFFFFF" points="36.598,81.918 58.292,36.944 80.891,81.918 72.124,81.918 58.744,52.464 45.285,81.918 "/>
<rect x="47.473" y="65.21" fill="#FFFFFF" width="24.001" height="5.579"/>
<polygon fill="#FFFFFF" points="10.996,36.968 10.996,45.196 22.125,45.196 22.125,81.935 30.844,81.935 30.844,45.449 
	42.067,45.449 42.067,36.968 "/>
<path fill="#FFFFFF" d="M97.646,54.858c7.293,2.346,13.602,5.128,13.047,15.187c-0.429,7.919-7.125,12.999-16.424,12.332
	c-5.676-0.403-8.893-3.296-12.056-6.674c1.792-2.18,3.773-4.191,5.865-6.095c1.618,2.386,4.575,5.041,8.695,4.685
	c2.901-0.237,6.349-3.066,4.788-6.872c-1.174-2.845-5.692-3.979-8.814-5.121c-5.604-2.107-10.399-5.009-9.773-13.775
	c0.491-7.015,6.158-11.421,13.475-11.897c6.509-0.404,10.297,2.497,13.476,5.897c-1.562,2.234-3.504,4.058-5.097,6.222
	c-1.673-1.34-3.646-3.551-6.635-3.924c-4.162-0.531-7.475,2.005-6.31,6.325C92.486,53.399,95.348,54.121,97.646,54.858z"/>
</svg>